HIERARCHY
ROOT Hips
{
	OFFSET -0.001795 -0.223333 0.028219
	CHANNELS 6 Xposition Yposition Zposition Zrotation Yrotation Xrotation 
	JOINT LeftUpLeg
	{
		OFFSET 0.069520 -0.091406 -0.006815
		CHANNELS 3 Zrotation Yrotation Xrotation
		JOINT LeftLeg
		{
			OFFSET 0.034277 -0.375199 -0.004496
			CHANNELS 3 Zrotation Yrotation Xrotation
			JOINT LeftFoot
			{
				OFFSET -0.013596 -0.397961 -0.043693
				CHANNELS 3 Zrotation Yrotation Xrotation
				JOINT LeftToe
				{
					OFFSET 0.026358 -0.055791 0.119288
					CHANNELS 3 Zrotation Yrotation Xrotation
					End Site
					{
						OFFSET 0.000000 0.000000 0.000000
					}
				}
			}
		}
	}
	JOINT RightUpLeg
	{
		OFFSET -0.067670 -0.090522 -0.004320
		CHANNELS 3 Zrotation Yrotation Xrotation
		JOINT RightLeg
		{
			OFFSET -0.038290 -0.382569 -0.008850
			CHANNELS 3 Zrotation Yrotation Xrotation
			JOINT RightFoot
			{
				OFFSET 0.015774 -0.398415 -0.042312
				CHANNELS 3 Zrotation Yrotation Xrotation
				JOINT RightToe
				{
					OFFSET -0.025372 -0.048144 0.123348
					CHANNELS 3 Zrotation Yrotation Xrotation
					End Site
					{
						OFFSET 0.000000 0.000000 0.000000
					}
				}
			}
		}
	}
	JOINT Spine
	{
		OFFSET -0.002533 0.108963 -0.026696
		CHANNELS 3 Zrotation Yrotation Xrotation
		JOINT Spine1
		{
			OFFSET 0.005487 0.135180 0.001092
			CHANNELS 3 Zrotation Yrotation Xrotation
			JOINT Spine2
			{
				OFFSET 0.001457 0.052922 0.025425
				CHANNELS 3 Zrotation Yrotation Xrotation
				JOINT Neck
				{
					OFFSET -0.002778 0.213870 -0.042857
					CHANNELS 3 Zrotation Yrotation Xrotation
					JOINT Head
					{
						OFFSET 0.005152 0.064970 0.051349
						CHANNELS 3 Zrotation Yrotation Xrotation
						End Site
						{
							OFFSET 0.000000 0.000000 0.000000
						}
					}
				}
				JOINT LeftShoulder
				{
					OFFSET 0.078845 0.121749 -0.034090
					CHANNELS 3 Zrotation Yrotation Xrotation
					JOINT LeftArm
					{
						OFFSET 0.090977 0.030469 -0.008868
						CHANNELS 3 Zrotation Yrotation Xrotation
						JOINT LeftForeArm
						{
							OFFSET 0.259612 -0.012772 -0.027456
							CHANNELS 3 Zrotation Yrotation Xrotation
							JOINT LeftHand
							{
								OFFSET 0.249234 0.008986 -0.001171
								CHANNELS 3 Zrotation Yrotation Xrotation
								End Site
								{
									OFFSET 0.000000 0.000000 0.000000
								}
							}
						}
					}
				}
				JOINT RightShoulder
				{
					OFFSET -0.081759 0.118833 -0.038615
					CHANNELS 3 Zrotation Yrotation Xrotation
					JOINT RightArm
					{
						OFFSET -0.096012 0.032551 -0.009143
						CHANNELS 3 Zrotation Yrotation Xrotation
						JOINT RightForeArm
						{
							OFFSET -0.253742 -0.013329 -0.021401
							CHANNELS 3 Zrotation Yrotation Xrotation
							JOINT RightHand
							{
								OFFSET -0.255298 0.007772 -0.005559
								CHANNELS 3 Zrotation Yrotation Xrotation
								End Site
								{
									OFFSET 0.000000 0.000000 0.000000
								}
							}
						}
					}
				}
			}
		}
	}
}
MOTION
Frames: 14
Frame Time: 0.050000
-0.290210 0.941286 0.243090 -172.524703 43.439019 -173.049669 5.651771 -3.437085 -11.809798 -52.806856 -18.865443 62.040345 25.796640 19.257457 57.623280 0.000000 0.000000 0.000000 16.674248 -5.408949 -25.145925 -28.421066 -19.151915 40.713858 22.916927 17.271127 14.069664 0.000000 0.000000 0.000000 1.962901 -2.243453 13.540365 0.678857 -3.628654 -8.101599 -0.059069 7.305124 8.843727 5.408043 3.144575 -20.501699 0.000000 0.000000 0.000000 -4.705197 -0.833660 -26.621849 -41.757026 26.503533 -16.836727 -108.886242 -26.644855 15.012057 0.000000 0.000000 0.000000 6.879608 -15.405527 3.038078 60.868599 -9.930319 3.303129 71.671629 78.732315 90.811709 0.000000 0.000000 0.000000 
-0.235965 0.925162 0.194157 -174.591933 43.914511 -175.024805 6.455485 -6.075326 -21.327052 -67.749786 -17.411740 64.257751 51.062322 29.797145 61.910576 0.000000 0.000000 0.000000 14.547433 -2.785720 -19.298830 -30.206512 -20.899971 42.383612 25.776757 18.474099 7.749796 0.000000 0.000000 0.000000 1.067008 -2.403326 14.283291 -0.301493 -2.556175 -9.931068 1.097277 10.090414 10.001721 3.687747 2.449088 -20.854999 0.000000 0.000000 0.000000 -5.123343 -1.362933 -30.790382 -37.827424 33.470220 -17.478359 -104.508444 -20.688922 7.505043 0.000000 0.000000 0.000000 8.179322 -14.902471 6.528870 60.296560 0.240983 6.655624 47.163358 85.691663 74.857022 0.000000 0.000000 0.000000 
-0.182835 0.939129 0.144946 -175.684686 45.091463 -175.020398 7.400781 -9.338660 -28.005391 -52.872798 -19.355094 52.517875 53.480674 36.929488 37.304303 0.000000 0.000000 0.000000 12.695011 -0.659924 -13.218666 -26.270152 -21.049447 39.610223 26.109965 15.959354 7.864806 0.000000 0.000000 0.000000 -1.161739 -2.084868 13.879678 -1.269701 -1.549734 -11.902856 4.144437 12.731428 11.737290 3.793768 1.747453 -21.253096 0.000000 0.000000 0.000000 -3.653742 -2.267274 -33.703576 -35.866316 38.756666 -18.980433 -104.165063 -16.651026 2.377093 0.000000 0.000000 0.000000 7.560996 -14.893505 8.236415 61.239420 7.517794 11.368732 -76.641095 85.395493 -38.904591 0.000000 0.000000 0.000000 
-0.126821 0.964548 0.091153 -176.202984 47.026062 -174.281473 9.086072 -10.727939 -30.345262 -25.350520 -14.050390 30.208128 32.438316 18.119377 20.610671 0.000000 0.000000 0.000000 9.876292 0.146594 -6.894529 -20.014120 -18.596865 33.596321 31.853570 12.861687 15.556922 0.000000 0.000000 0.000000 -2.930096 -1.025437 10.273271 1.463635 -2.311977 -9.929428 2.276480 16.831844 12.649823 6.323819 -0.054396 -19.749143 0.000000 0.000000 0.000000 -1.768479 -0.888831 -33.316328 -35.448087 39.265973 -20.032265 -104.759210 -15.600700 -0.735299 0.000000 0.000000 0.000000 5.775334 -14.022619 8.865545 63.829776 10.911118 16.314755 -109.858005 79.930666 -63.374128 0.000000 0.000000 0.000000 
-0.067599 0.986503 0.033641 -176.933103 48.424018 -174.740127 6.011252 -9.037365 -28.297105 -8.489670 -6.852129 16.900251 12.276315 7.444611 27.512210 0.000000 0.000000 0.000000 8.409618 0.042324 -3.644373 -19.198812 -18.035303 32.840363 27.783564 9.661828 27.444767 0.000000 0.000000 0.000000 -4.626694 -0.934569 9.224054 -0.326608 -3.371392 -7.685132 5.304760 18.323304 9.397796 5.182488 -1.384825 -16.208566 0.000000 0.000000 0.000000 -1.016722 -0.441055 -30.785709 -36.904956 40.876849 -21.851470 -105.658811 -14.251078 -3.454706 0.000000 0.000000 0.000000 2.782429 -10.466855 8.097961 64.963217 5.565179 14.701120 -136.979038 78.019031 -88.111029 0.000000 0.000000 0.000000 
-0.005568 0.988756 -0.025305 -179.016780 50.649340 -176.051465 2.490932 -6.240991 -23.912944 -5.148093 -5.510602 14.806473 9.133346 6.505318 28.282487 0.000000 0.000000 0.000000 5.107194 -1.013273 -5.377201 -29.935738 -22.589896 44.966512 32.165927 12.153225 38.028952 0.000000 0.000000 0.000000 -6.863534 -1.188556 8.682531 1.240171 -2.176993 -9.446257 4.397373 17.138315 10.785359 5.678975 -1.374556 -16.024698 0.000000 0.000000 0.000000 -0.952489 -0.044398 -29.254638 -38.600213 39.659610 -22.402350 -103.760317 -15.238465 -2.828473 0.000000 0.000000 0.000000 -0.478269 -9.976315 5.598660 68.978412 0.627380 15.511790 -147.134577 77.581674 -98.407351 0.000000 0.000000 0.000000 
0.055467 0.968092 -0.082418 179.895847 52.277651 -179.439348 0.740378 -3.513072 -18.405081 -6.499953 -6.752450 18.246187 13.228370 6.345406 24.382164 0.000000 0.000000 0.000000 3.997753 -2.439738 -10.579204 -58.643010 -21.786189 65.885948 40.140653 10.845982 54.939597 0.000000 0.000000 0.000000 -8.651527 -1.975847 11.523771 2.497508 -2.247011 -9.026092 3.347810 14.423941 9.917259 5.092859 0.696470 -17.016070 0.000000 0.000000 0.000000 -2.188186 1.493103 -25.369263 -41.451182 35.699431 -21.847207 -104.101941 -20.110524 4.141705 0.000000 0.000000 0.000000 -1.132595 -8.608296 3.655087 69.674425 -4.060317 11.428413 -174.427232 79.006286 -133.000759 0.000000 0.000000 0.000000 
0.114294 0.938798 -0.134354 179.604342 52.253487 177.570596 -0.607069 -1.709496 -13.183579 -8.169824 -9.479808 25.055274 20.716211 6.441064 14.643633 0.000000 0.000000 0.000000 4.883842 -4.904658 -17.791514 -82.067314 -14.114504 76.277070 43.163809 12.404561 62.043971 0.000000 0.000000 0.000000 -8.168662 -2.593575 14.680448 3.274673 -3.331068 -7.281432 1.618851 10.829828 9.342663 5.321722 3.515831 -20.312514 0.000000 0.000000 0.000000 -6.182535 -0.329357 -24.036527 -43.295321 29.245962 -17.879375 -104.822030 -29.454004 18.475899 0.000000 0.000000 0.000000 1.395147 -11.263294 1.539827 67.826643 -8.901345 5.419292 135.309867 78.317180 165.070598 0.000000 0.000000 0.000000 
0.174263 0.922447 -0.180809 -179.527379 52.081698 177.285127 -1.183582 -0.818412 -7.875704 -7.906895 -10.013692 26.785030 29.212336 8.162814 12.698608 0.000000 0.000000 0.000000 7.507515 -7.950076 -25.349357 -81.045950 -12.316690 74.739524 47.889482 26.532940 50.790664 0.000000 0.000000 0.000000 -7.528288 -3.282712 17.034107 4.170510 -2.622601 -8.469879 -0.046141 4.490673 10.475051 5.710761 4.583903 -20.921483 0.000000 0.000000 0.000000 -8.580592 -1.112141 -22.954118 -46.140034 19.252621 -13.379140 -101.807170 -40.174571 30.045651 0.000000 0.000000 0.000000 3.085682 -12.051137 0.839898 66.859775 -12.187287 1.150557 104.588371 75.658129 124.683943 0.000000 0.000000 0.000000 
0.239844 0.929154 -0.223524 -178.252555 53.954351 178.381181 -0.553562 -1.306119 -0.666836 -6.908130 -7.813592 23.474121 30.433500 8.790267 14.830547 0.000000 0.000000 0.000000 11.729414 -9.981922 -31.864260 -57.348882 -15.661102 64.177442 32.807374 31.289543 23.908346 0.000000 0.000000 0.000000 -4.564635 -2.783093 16.234008 3.827357 -2.840194 -7.480966 -1.607471 -1.209466 9.436629 6.057667 5.498808 -21.650711 0.000000 0.000000 0.000000 -5.440659 0.275769 -15.864765 -51.530332 8.074762 -12.102259 -107.294237 -46.677254 37.911801 0.000000 0.000000 0.000000 3.727097 -14.795677 -2.507678 61.555499 -18.961143 -2.905239 92.202753 67.379190 101.680536 0.000000 0.000000 0.000000 
0.313240 0.947993 -0.265091 -178.549279 55.384460 179.501822 -0.025454 -3.168722 6.033951 -5.940266 -5.134356 17.854640 19.867299 8.018700 18.259048 0.000000 0.000000 0.000000 13.474111 -11.083941 -35.041357 -26.455621 -15.001164 43.594546 19.685714 19.907349 16.829922 0.000000 0.000000 0.000000 -2.445526 -1.975777 13.916096 3.741991 -1.687678 -9.327796 -2.520365 -7.715718 10.921476 5.147883 6.832795 -23.067230 0.000000 0.000000 0.000000 -5.710465 0.791019 -14.777449 -51.615118 2.795862 -9.720165 -115.238405 -49.435059 48.529639 0.000000 0.000000 0.000000 1.677123 -17.234579 -5.990416 57.634354 -25.825140 -4.304419 92.754990 61.032747 96.570358 0.000000 0.000000 0.000000 
0.393320 0.969648 -0.305395 -179.315197 58.501494 -179.823811 0.988645 -4.721764 9.414822 -6.748299 -4.240931 16.089999 3.312205 10.297256 28.726140 0.000000 0.000000 0.000000 14.076189 -9.446680 -34.029082 -8.050039 -8.589536 24.024285 9.231719 11.086545 22.847693 0.000000 0.000000 0.000000 -0.027981 -0.909065 9.821873 3.408129 -1.682515 -8.847270 -4.768143 -10.292066 8.884589 4.587725 5.702144 -19.444931 0.000000 0.000000 0.000000 -5.651040 0.795639 -12.315741 -50.546000 1.277894 -8.796572 -121.235119 -50.278204 55.488874 0.000000 0.000000 0.000000 0.551668 -16.399226 -6.703879 54.242590 -31.870263 -5.454471 94.917846 57.190448 92.830301 0.000000 0.000000 0.000000 
0.476406 0.981607 -0.342476 175.422679 61.540965 175.367883 2.015457 -4.175893 8.033215 -14.076187 -6.960211 23.644607 -2.268049 13.381146 39.978417 0.000000 0.000000 0.000000 12.503375 -6.748583 -29.564300 -1.291970 -4.728067 12.249731 -1.444818 4.587674 33.970095 0.000000 0.000000 0.000000 0.292401 -0.306061 5.944265 2.236007 -1.938397 -7.433135 -6.743894 -8.819501 9.291993 5.930378 4.380786 -17.963153 0.000000 0.000000 0.000000 -5.193631 0.571187 -10.945921 -48.261146 2.258152 -8.893066 -128.662857 -48.415631 61.651813 0.000000 0.000000 0.000000 -2.107660 -16.411153 -8.008460 56.757219 -35.360448 -4.917062 93.284165 57.838658 90.020542 0.000000 0.000000 0.000000 
0.556769 0.975739 -0.374414 171.384639 63.400574 169.893623 4.437605 -3.635955 4.508659 -22.394684 -10.558286 35.051739 -4.689374 13.690050 46.483210 0.000000 0.000000 0.000000 12.121539 -4.872480 -26.386197 -1.674458 -6.262232 15.316399 -7.317234 -0.508299 30.907369 0.000000 0.000000 0.000000 0.154436 -0.389823 6.729423 -0.413625 -1.393272 -7.281614 -5.510559 -8.429961 7.753196 8.331463 2.056098 -15.052604 0.000000 0.000000 0.000000 -5.643229 0.711668 -10.787590 -45.433375 4.772784 -8.840261 -130.454711 -46.584482 61.706875 0.000000 0.000000 0.000000 -1.717896 -16.728648 -8.041964 57.122435 -36.360657 -5.703922 98.784469 57.435143 95.303049 0.000000 0.000000 0.000000 
